<?xml version="1.0" encoding="UTF-8" standalone="no"?>
<svg
   xmlns:dc="http://purl.org/dc/elements/1.1/"
   xmlns:cc="http://creativecommons.org/ns#"
   xmlns:rdf="http://www.w3.org/1999/02/22-rdf-syntax-ns#"
   xmlns:svg="http://www.w3.org/2000/svg"
   xmlns="http://www.w3.org/2000/svg"
   xmlns:sodipodi="http://sodipodi.sourceforge.net/DTD/sodipodi-0.dtd"
   xmlns:inkscape="http://www.inkscape.org/namespaces/inkscape"
   version="1.1"
   id="svg2"
   xml:space="preserve"
   width="1516"
   height="706.66669"
   viewBox="0 0 1516 706.66669"
   sodipodi:docname="logo.ai"><metadata
     id="metadata8"><rdf:RDF><cc:Work
         rdf:about=""><dc:format>image/svg+xml</dc:format><dc:type
           rdf:resource="http://purl.org/dc/dcmitype/StillImage" /></cc:Work></rdf:RDF></metadata><defs
     id="defs6"><clipPath
       clipPathUnits="userSpaceOnUse"
       id="clipPath18"><path
         d="M 0,530 H 1137 V 0 H 0 Z"
         id="path16" /></clipPath></defs><sodipodi:namedview
     pagecolor="#ffffff"
     bordercolor="#666666"
     borderopacity="1"
     objecttolerance="10"
     gridtolerance="10"
     guidetolerance="10"
     inkscape:pageopacity="0"
     inkscape:pageshadow="2"
     inkscape:window-width="640"
     inkscape:window-height="480"
     id="namedview4" /><g
     id="g10"
     inkscape:groupmode="layer"
     inkscape:label="logo"
     transform="matrix(1.3333333,0,0,-1.3333333,0,706.66667)"><g
       id="g12"><g
         id="g14"
         clip-path="url(#clipPath18)"><g
           id="g20"
           transform="translate(277.5669,393.7109)"><path
             d="m 0,0 c 0,6.111 4.952,11.063 11.063,11.063 6.108,0 11.06,-4.952 11.06,-11.063 0,-6.108 -4.952,-11.061 -11.06,-11.061 -0.668,0 -1.325,0.059 -1.96,0.171 2.915,0.802 5.053,3.47 5.053,6.638 0,3.8 -3.078,6.879 -6.876,6.879 C 3.829,2.627 0.975,0.089 0.475,-3.221 0.163,-2.2 0,-1.121 0,0 m -127.291,-320.109 c -1.36,0 -2.741,0.03 -4.105,0.061 1.233,4.375 1.137,9.069 -0.571,13.516 -3.681,9.593 -13.708,15.033 -24.166,13.961 10.211,-2.711 17.682,-11.41 17.682,-21.726 0,-3.766 -0.995,-7.316 -2.757,-10.438 -10.315,-15.502 -26.429,9.098 -26.429,9.098 0,0 10.244,-22.44 4.744,-24.44 -5.5,-2 -17.25,2.5 -27.625,7.625 -5.985,2.957 -19.125,14.969 -12.937,24.062 -6.266,-9.209 -35.412,21.475 -26.815,53.557 9.629,35.936 52.942,64.569 97.218,65.598 36.689,0.849 85.033,6.764 92.084,23.683 7.98,19.14 17.506,37.695 30.874,53.09 2.485,42.052 -23.187,73.429 -19.402,105.289 4.217,35.474 45.616,48.659 51.829,87.661 2.034,1 4.352,1.529 6.649,1.529 14.732,0 26.675,-21.856 26.675,-48.817 0,-26.961 -11.842,-48.789 -26.572,-48.789 -0.593,-3.584 -1.716,-6.675 -3.47,-8.38 2.107,0.99 4.695,3.078 6.663,5.996 9.174,0.015 18.53,8.327 25.003,21.325 -1.266,-5.601 -1.888,-11.684 -2.228,-18.129 -0.282,-5.379 -0.1,-9.111 0.508,-13.973 2.509,-20.059 46.608,-46.888 43.963,-84.891 -0.392,-5.642 -0.27,-10.285 3.715,-15.791 8.326,-11.5 12.388,-28.031 12.388,-45.69 0,-24.982 -9.273,-46.892 -23.165,-58.442 -21.169,-17.604 -31.617,-46.561 -31.72,-76.236 -0.066,-19.094 -10.695,-24.72 -19.377,-30.971 -11.525,-8.301 -20.59,-17.355 -20.59,-17.355 -3.54,-3.313 -8.285,-5.251 -13.515,-5.251 -12.777,0 -23.579,11.883 -23.622,35.54 -0.052,28.228 15.634,51.028 35.119,51.028 -18.885,4.707 -39.786,-13.573 -46.591,-40.917 -4.033,2.088 -11.232,2.849 -19.263,1.762 -25.363,-3.441 -51.836,-4.145 -80.194,-4.145"
             style="fill:#231f20;fill-opacity:1;fill-rule:evenodd;stroke:none"
             id="path22" /></g><g
           id="g24"
           transform="translate(474.3892,324.8711)"><path
             d="m 0,0 0.009,-6.123 c 0.026,-19.535 5.583,-32.065 27.742,-32.034 12.83,0.018 25.063,8.198 25.04,25.692 -0.027,18.952 -9.658,25.936 -37.37,35.52 -37.338,12.777 -54.561,28.207 -54.609,62.903 -0.055,40.527 24.7,61.263 64.353,61.317 37.319,0.051 64.458,-15.948 64.512,-55.892 L 89.685,85.551 49.449,85.496 C 49.422,105.031 42.701,116.393 26.665,116.371 7.713,116.345 2.772,104.384 2.79,92.138 2.807,79.31 6.608,71.442 24.404,63.886 L 56.787,49.936 C 88.294,36.275 96.481,20.25 96.516,-5.116 96.576,-49.142 69.779,-69.005 24.294,-69.068 -23.23,-69.133 -41.921,-47 -41.974,-8.513 l -0.011,8.455 z"
             style="fill:#36748f;fill-opacity:1;fill-rule:nonzero;stroke:none"
             id="path26" /></g><g
           id="g28"
           transform="translate(729.5205,468.3794)"><path
             d="m 0,0 0.047,-34.405 -74.35,-0.102 0.068,-48.982 69.975,0.096 0.048,-34.405 -69.976,-0.096 0.077,-55.981 77.264,0.106 0.048,-34.404 -119.25,-0.164 -0.286,208.177 z"
             style="fill:#36748f;fill-opacity:1;fill-rule:nonzero;stroke:none"
             id="path30" /></g><g
           id="g32"
           transform="translate(821.1631,338.7588)"><path
             d="M 0,0 40.819,0.056 20.573,93.621 19.99,93.62 Z m -5.718,129.738 51.899,0.072 55.392,-208.102 -43.735,-0.06 -9.682,44.013 -55.397,-0.076 -9.562,-44.04 -43.734,-0.059 z"
             style="fill:#36748f;fill-opacity:1;fill-rule:nonzero;stroke:none"
             id="path34" /></g><g
           id="g36"
           transform="translate(958.8076,260.5161)"><path
             d="m 0,0 -0.286,208.177 41.985,0.058 0.239,-173.773 74.349,0.102 0.048,-34.404 z"
             style="fill:#36748f;fill-opacity:1;fill-rule:nonzero;stroke:none"
             id="path38" /></g><g
           id="g40"
           transform="translate(463.9346,153.4834)"><path
             d="M 0,0 11.663,0.017 C 25.075,0.035 32.648,5.876 32.628,20.844 32.61,33.673 25.798,40.079 13.163,40.062 L -0.055,40.043 Z m -28.074,60.608 51.705,0.072 c 22.937,0.031 36.95,-12 36.982,-35.715 C 60.639,6.498 53.269,-5.953 37.528,-9.278 l 0.001,-0.389 c 19.053,-2.501 21.983,-12.994 22.412,-42.346 0.215,-14.577 1.002,-22.157 6.254,-24.872 l 0.002,-1.166 -30.324,-0.041 c -2.727,3.884 -3.316,9.131 -3.519,14.574 l -0.814,26.629 c -0.403,10.885 -5.271,17.487 -16.546,17.471 l -14.968,-0.02 0.081,-58.704 -27.991,-0.038 z"
             style="fill:#231f20;fill-opacity:1;fill-rule:nonzero;stroke:none"
             id="path42" /></g><g
           id="g44"
           transform="translate(630.4355,214.3584)"><path
             d="m 0,0 0.031,-22.937 -49.567,-0.067 0.045,-32.656 46.651,0.063 0.031,-22.936 -46.651,-0.064 0.051,-37.321 51.512,0.07 0.032,-22.937 -79.503,-0.11 -0.191,138.789 z"
             style="fill:#231f20;fill-opacity:1;fill-rule:nonzero;stroke:none"
             id="path46" /></g><g
           id="g48"
           transform="translate(683.3896,151.6465)"><path
             d="M 0,0 12.44,0.017 C 23.521,0.032 31.093,6.651 31.073,20.841 31.055,34.448 25.601,42.217 11.605,42.197 L -0.058,42.182 Z m -28.077,62.746 48.984,0.067 c 28.38,0.04 38.127,-20.746 38.156,-41.544 0.04,-28.768 -17.631,-41.817 -44.067,-41.853 l -14.968,-0.02 0.076,-55.399 -27.991,-0.039 z"
             style="fill:#231f20;fill-opacity:1;fill-rule:nonzero;stroke:none"
             id="path50" /></g><g
           id="g52"
           transform="translate(809.6221,93.6992)"><path
             d="M 0,0 C 16.522,0.022 19.225,14.217 19.173,51.538 19.122,88.665 16.381,103.045 -0.142,103.022 -16.664,103 -19.366,88.612 -19.315,51.485 -19.264,14.164 -16.522,-0.022 0,0 m -0.17,123.627 c 41.986,0.058 47.275,-29.87 47.333,-72.051 0.058,-42.18 -5.149,-72.123 -47.136,-72.18 -41.986,-0.058 -47.275,29.87 -47.333,72.05 -0.057,42.181 5.15,72.123 47.136,72.181"
             style="fill:#231f20;fill-opacity:1;fill-rule:nonzero;stroke:none"
             id="path54" /></g><g
           id="g56"
           transform="translate(910.2285,154.0957)"><path
             d="M 0,0 11.663,0.017 C 25.075,0.034 32.648,5.876 32.628,20.844 32.61,33.673 25.798,40.079 13.163,40.062 L -0.055,40.043 Z M -28.074,60.608 23.632,60.68 C 46.568,60.711 60.581,48.679 60.613,24.964 60.639,6.497 53.269,-5.953 37.528,-9.278 l 0.001,-0.389 c 19.053,-2.501 21.983,-12.994 22.412,-42.346 0.215,-14.577 1.002,-22.157 6.254,-24.872 l 0.002,-1.166 -30.323,-0.042 c -2.728,3.885 -3.317,9.132 -3.52,14.575 l -0.813,26.628 c -0.404,10.886 -5.273,17.488 -16.547,17.472 l -14.968,-0.02 0.081,-58.704 -27.991,-0.038 z"
             style="fill:#231f20;fill-opacity:1;fill-rule:nonzero;stroke:none"
             id="path58" /></g><g
           id="g60"
           transform="translate(1076.959,214.9717)"><path
             d="m 0,0 0.031,-22.937 -30.323,-0.042 0.159,-115.851 -27.991,-0.038 -0.159,115.851 -30.323,-0.042 -0.032,22.937 z"
             style="fill:#231f20;fill-opacity:1;fill-rule:nonzero;stroke:none"
             id="path62" /></g></g></g></g></svg>
